<?xml version="1.0" standalone="no"?>
<!DOCTYPE svg PUBLIC "-//W3C//DTD SVG 20010904//EN"
 "http://www.w3.org/TR/2001/REC-SVG-20010904/DTD/svg10.dtd">
<svg version="1.0" xmlns="http://www.w3.org/2000/svg"
 width="700.000000pt" height="700.000000pt" viewBox="0 0 700.000000 700.000000"
 preserveAspectRatio="xMidYMid meet">
<metadata>
Created by potrace 1.14, written by Peter Selinger 2001-2017
</metadata>
<g transform="translate(0.000000,700.000000) scale(0.100000,-0.100000)"
fill="#000000" stroke="none">
<path d="M4026 6328 c-8 -47 -2 -58 24 -53 11 2 20 0 20 -4 0 -15 59 -7 65 8
15 36 14 71 0 71 -8 0 -15 3 -15 8 0 4 -20 8 -44 8 -44 2 -44 2 -50 -38z"/>
<path d="M3194 6268 c-4 -6 -8 -366 -5 -427 1 -8 7 -11 17 -7 9 3 21 3 27 -1
20 -12 47 -10 59 4 8 10 11 62 9 166 -1 83 0 149 2 147 15 -15 85 -159 80
-164 -4 -3 -1 -6 5 -6 7 0 12 -7 12 -15 0 -8 5 -15 11 -15 5 0 8 -4 4 -9 -3
-5 -1 -12 5 -16 6 -4 8 -11 5 -16 -4 -5 -2 -9 4 -9 6 0 13 -11 17 -25 3 -14
10 -25 15 -25 5 0 8 -5 7 -12 -2 -7 14 -12 45 -13 26 -1 47 3 47 8 0 4 4 6 9
3 5 -4 12 7 16 24 4 16 11 30 16 30 6 0 8 4 4 9 -3 5 -1 12 5 16 6 4 8 11 5
16 -4 5 -2 9 4 9 6 0 13 11 17 25 3 14 11 25 17 25 6 0 8 3 4 6 -3 4 7 26 23
49 16 23 26 45 23 49 -4 3 -1 6 6 6 7 0 10 3 7 8 -2 4 2 16 10 27 13 18 14 17
15 -13 2 -95 0 -184 -6 -237 l-7 -61 56 0 c62 1 59 -4 58 81 0 28 3 55 7 60 4
6 7 75 7 155 l-1 145 -90 0 c-50 0 -95 -4 -100 -10 -6 -5 -17 -25 -24 -42 -7
-18 -18 -33 -24 -33 -6 0 -8 -3 -5 -6 10 -9 -83 -185 -95 -181 -7 2 -12 8 -13
13 0 5 -17 44 -37 86 -21 42 -37 81 -37 87 0 6 -3 11 -7 11 -5 0 -16 19 -26
43 l-17 43 -91 0 c-49 0 -92 -3 -95 -8z"/>
<path d="M2960 6229 c-37 -10 -70 -17 -110 -25 -14 -2 -40 -7 -57 -10 -18 -4
-33 -9 -33 -13 0 -4 -12 -6 -27 -6 -16 1 -32 -1 -38 -4 -12 -6 -26 -10 -77
-18 -40 -6 -58 -33 -39 -57 6 -8 9 -21 5 -30 -5 -13 1 -16 29 -16 20 0 38 4
42 9 3 5 17 8 30 5 14 -2 25 0 25 6 0 6 12 8 27 5 15 -2 30 -1 33 4 3 5 25 12
48 16 42 7 43 6 33 -14 -6 -11 -21 -31 -34 -44 -12 -13 -33 -39 -47 -58 -14
-18 -44 -57 -67 -86 -24 -29 -43 -56 -43 -59 0 -4 -7 -12 -17 -19 -11 -8 -13
-17 -7 -26 5 -8 9 -25 9 -38 0 -29 25 -47 51 -36 11 5 27 9 37 10 9 2 19 4 22
5 3 1 13 3 23 4 9 1 23 5 30 9 6 5 12 6 12 4 0 -2 26 2 58 10 31 8 64 14 72
15 8 0 22 2 30 5 22 9 22 9 65 17 70 14 72 15 71 46 -1 17 -4 30 -8 30 -5 0
-8 9 -8 20 0 11 -1 20 -2 20 -2 0 -27 -7 -55 -14 -29 -8 -53 -12 -53 -9 0 3
-6 1 -12 -4 -7 -5 -22 -9 -33 -9 -11 1 -22 -2 -25 -5 -3 -4 -29 -10 -58 -14
-45 -6 -51 -5 -46 9 3 9 9 14 13 12 4 -3 15 11 26 30 10 19 22 34 27 34 5 0
12 8 15 18 4 9 17 27 30 39 13 12 23 27 23 32 0 6 6 14 13 18 42 27 96 143 66
143 -5 0 -8 3 -8 8 7 42 -2 46 -61 31z"/>
<path d="M2366 6222 c-3 -5 -23 -15 -46 -22 -22 -7 -39 -16 -38 -19 2 -3 10
-23 18 -44 10 -27 18 -36 30 -31 8 3 21 7 28 7 6 0 12 5 12 10 0 6 3 7 6 4 4
-3 15 -2 26 4 20 11 19 30 -4 77 -12 23 -23 28 -32 14z"/>
<path d="M4015 6222 c-6 -4 -10 -14 -10 -22 1 -8 -2 -19 -6 -25 -3 -5 -7 -17
-7 -25 0 -8 -6 -42 -12 -75 -6 -33 -13 -73 -15 -90 -1 -16 -4 -30 -5 -30 -2 0
-9 -51 -14 -100 -1 -17 -5 -36 -9 -42 -9 -15 21 -32 48 -27 10 1 24 -1 30 -5
21 -16 39 -6 42 24 8 81 16 125 22 125 4 0 6 15 5 32 -1 18 2 38 7 44 5 6 7
21 4 34 -2 12 -1 28 3 34 4 6 7 20 8 31 1 11 4 27 8 37 4 9 6 29 4 45 -2 22
-8 28 -25 26 -13 -2 -23 1 -23 5 0 10 -42 13 -55 4z"/>
<path d="M4260 6143 c-8 -27 -15 -51 -16 -55 -1 -5 -3 -10 -4 -13 -1 -3 -3 -8
-5 -12 -1 -5 -7 -21 -14 -37 -6 -16 -13 -38 -16 -50 -2 -11 -5 -23 -6 -26 -1
-3 -3 -9 -4 -15 -1 -5 -5 -17 -8 -25 -9 -25 -31 -95 -32 -102 0 -3 -3 -9 -7
-13 -13 -14 4 -34 35 -41 18 -3 38 -11 46 -17 15 -13 41 15 41 44 0 10 5 21
10 24 6 4 8 10 5 15 -3 5 0 12 6 16 6 3 15 1 19 -5 4 -7 11 -11 16 -10 5 1 22
-3 37 -9 16 -7 37 -12 48 -12 10 0 19 -4 19 -9 0 -5 9 -7 20 -4 11 3 20 1 20
-5 0 -5 9 -12 20 -15 23 -6 28 -54 10 -88 -9 -16 -6 -21 17 -31 15 -6 34 -10
41 -9 6 1 12 -2 12 -6 0 -5 9 -9 20 -10 14 -1 22 6 26 25 4 15 9 31 13 37 3 5
6 27 7 48 1 28 -3 40 -17 48 -23 12 -16 29 12 29 10 0 19 5 19 11 0 5 4 8 9 5
16 -10 51 90 51 145 0 44 -4 55 -27 75 -16 13 -31 25 -35 25 -12 2 -21 5 -38
12 -21 8 -83 27 -106 32 -20 4 -188 59 -214 69 -12 5 -19 -5 -30 -41z m292
-160 c32 -14 36 -19 33 -45 -2 -17 -11 -38 -19 -47 -17 -19 -56 -25 -56 -9 0
5 -7 8 -15 5 -8 -4 -17 -2 -20 3 -3 4 -23 11 -45 15 -22 4 -42 11 -45 15 -3 5
-12 7 -20 3 -8 -3 -15 0 -15 6 0 6 -7 11 -16 11 -16 0 -14 12 12 75 l13 32 78
-24 c43 -14 95 -32 115 -40z"/>
<path d="M2373 6069 c-42 -20 -52 -32 -33 -44 5 -3 7 -12 3 -20 -3 -8 -1 -15
5 -15 6 0 9 -8 8 -17 -2 -10 3 -24 11 -31 7 -7 13 -22 13 -32 0 -10 4 -21 10
-25 5 -3 7 -12 3 -20 -3 -8 0 -15 6 -15 6 0 10 -3 9 -7 -2 -5 2 -21 9 -38 23
-61 26 -70 27 -75 1 -3 5 -11 9 -17 5 -7 6 -17 3 -21 -2 -4 3 -18 12 -30 15
-19 21 -21 54 -12 48 14 70 36 59 58 -16 29 -36 87 -33 95 1 4 -2 7 -7 7 -6 0
-8 9 -6 20 2 11 0 20 -5 20 -4 0 -13 23 -20 50 -7 28 -17 50 -22 50 -6 0 -8 9
-5 20 3 10 2 20 -3 22 -4 2 -14 23 -22 48 -8 25 -21 46 -29 47 -8 1 -33 -7
-56 -18z"/>
<path d="M1409 5471 c-30 -20 -72 -69 -76 -90 -18 -87 -5 -132 52 -186 38 -36
48 -40 92 -40 27 1 64 7 83 15 45 17 90 65 90 95 0 13 4 26 8 29 10 6 9 52 -1
62 -4 4 -7 16 -7 27 0 23 -62 87 -84 87 -9 0 -16 3 -16 8 0 14 -116 9 -141 -7z"/>
<path d="M5431 5468 c-30 -15 -65 -45 -68 -58 -1 -3 -7 -18 -13 -35 -13 -33
-6 -110 11 -131 6 -8 8 -14 5 -14 -11 0 57 -56 79 -65 32 -12 97 -12 133 2 79
30 129 146 91 213 -7 14 -13 28 -14 32 0 14 -54 58 -70 58 -8 0 -15 3 -15 8 0
14 -105 7 -139 -10z"/>
<path d="M2691 4103 c-446 -445 -811 -813 -811 -818 0 -12 781 -787 810 -803
71 -42 92 -51 124 -58 20 -3 36 -10 36 -14 0 -4 16 -7 35 -5 19 2 35 0 35 -5
0 -16 147 -1 230 24 50 15 130 61 138 79 2 4 8 7 14 7 12 0 103 91 103 102 0
4 8 16 17 28 10 11 20 31 24 45 3 14 10 25 16 25 5 0 6 5 3 10 -3 6 -1 10 5
10 7 0 10 7 7 15 -4 8 -2 17 2 20 18 10 35 245 19 245 -5 0 -8 13 -8 29 0 17
-4 32 -10 36 -5 3 -7 12 -3 20 3 8 0 15 -6 15 -6 0 -11 6 -11 14 0 45 -103
177 -170 219 -19 11 -37 24 -40 28 -9 11 -68 39 -85 39 -8 0 -15 5 -15 11 0 5
-4 7 -10 4 -5 -3 -10 -2 -10 3 0 4 58 8 130 8 71 -1 130 -4 130 -8 0 -4 10 -7
23 -7 12 0 40 -4 62 -11 41 -11 80 -19 103 -22 6 -1 12 -4 12 -8 0 -4 20 -13
45 -20 25 -7 45 -17 45 -22 0 -5 4 -6 10 -3 5 3 20 -3 32 -14 12 -12 28 -21
35 -21 7 0 13 -5 13 -12 0 -6 3 -9 6 -5 3 3 11 2 18 -3 124 -100 162 -138 266
-267 6 -7 10 -17 10 -22 0 -6 6 -14 14 -18 8 -4 14 -10 14 -13 0 -10 37 -85
47 -92 6 -4 6 -8 1 -8 -5 0 -3 -7 4 -15 7 -8 9 -15 5 -15 -4 0 -3 -6 2 -12 8
-10 30 -77 39 -118 0 -3 4 -12 8 -21 4 -10 6 -23 5 -30 -1 -8 1 -21 4 -29 4
-8 8 -66 9 -128 l3 -113 38 36 c20 19 34 35 31 35 -3 0 9 12 27 28 41 34 80
72 74 72 -3 0 12 15 32 34 36 33 618 612 676 674 l28 29 -515 515 c-284 283
-516 513 -516 512 0 -2 -20 18 -44 44 -80 86 -426 427 -436 430 -6 2 -10 8
-10 12 0 9 -14 24 -78 84 l-31 29 -810 -810z m877 176 c12 0 22 -4 22 -10 0
-6 7 -9 15 -6 8 4 17 2 20 -4 4 -5 11 -7 16 -4 5 4 9 1 9 -4 0 -6 6 -11 13
-11 20 0 85 -58 118 -106 16 -24 27 -44 24 -44 -3 0 1 -12 8 -27 16 -31 31
-98 29 -128 0 -11 -6 -38 -12 -60 -6 -22 -12 -46 -12 -52 -1 -7 -5 -13 -10
-13 -5 0 -6 -4 -3 -10 3 -5 1 -10 -4 -10 -6 0 -11 -6 -11 -13 0 -20 -74 -104
-88 -99 -6 2 -12 -1 -12 -7 0 -17 -85 -52 -132 -55 -16 0 -28 -4 -28 -8 0 -10
-44 -11 -53 -2 -3 4 -21 8 -39 9 -80 4 -212 104 -239 179 -7 20 -16 36 -19 36
-4 0 -8 8 -9 18 -4 31 -3 177 1 192 29 95 141 211 215 223 10 1 24 6 31 10 6
5 15 6 20 4 4 -3 16 -1 27 4 11 5 34 6 50 3 17 -4 40 -6 53 -5z"/>
<path d="M863 4453 c-9 -32 -16 -61 -15 -65 1 -5 -2 -8 -7 -8 -5 0 -12 -16
-16 -36 -3 -20 -11 -48 -17 -63 -11 -26 -14 -39 -20 -76 -2 -11 -6 -23 -11
-26 -4 -3 -8 -23 -10 -45 -2 -34 1 -39 21 -42 12 -2 22 -7 22 -12 0 -12 34 -7
43 8 4 6 5 17 2 22 -3 6 -2 10 2 10 9 0 38 85 36 108 0 6 3 12 7 12 4 0 11 20
14 45 4 25 12 45 17 45 5 0 9 8 7 18 -2 11 4 18 20 20 12 2 22 -2 22 -8 0 -6
5 -8 10 -5 19 12 22 -24 7 -69 -8 -24 -13 -47 -9 -50 3 -3 1 -6 -4 -6 -8 0
-25 -49 -40 -112 -1 -5 -3 -10 -4 -13 -8 -15 -4 -31 10 -41 34 -26 85 -18 73
11 -3 8 -1 15 5 15 6 0 9 8 7 18 -1 9 2 22 7 28 5 7 8 16 7 20 -1 5 3 23 10
39 7 17 14 37 16 45 6 27 24 68 32 73 12 8 79 -23 68 -31 -8 -5 -32 -68 -50
-132 -1 -3 -4 -12 -7 -20 -8 -22 -31 -102 -34 -121 -3 -11 6 -18 26 -23 17 -3
33 -5 36 -5 4 0 11 -5 15 -13 7 -10 9 -9 9 5 0 9 5 17 10 17 6 0 9 3 8 8 -2
13 26 102 33 102 5 0 6 9 4 20 -2 11 0 20 4 20 4 0 8 6 8 13 1 6 8 37 17 67 9
30 18 60 19 65 1 6 5 15 9 20 3 6 9 25 13 43 5 26 3 33 -12 38 -10 3 -25 8
-33 12 -8 3 -18 6 -22 7 -5 2 -10 4 -13 5 -6 3 -4 2 -68 20 -26 7 -50 16 -52
21 -3 4 -12 6 -20 2 -8 -3 -15 0 -15 7 0 7 -8 10 -20 7 -11 -3 -20 -1 -20 3 0
7 -26 15 -117 35 -20 5 -24 -1 -40 -52z"/>
<path d="M6100 4483 c-8 -2 -22 -7 -30 -10 -8 -4 -21 -5 -27 -4 -7 1 -13 -3
-13 -9 0 -6 -4 -8 -10 -5 -5 3 -10 2 -10 -4 0 -5 -18 -12 -40 -16 -22 -4 -40
-11 -40 -16 0 -5 -3 -8 -7 -8 -5 1 -10 0 -13 -1 -3 -1 -12 -3 -20 -5 -8 -1
-33 -11 -55 -20 -22 -10 -46 -17 -52 -16 -7 1 -13 -3 -13 -10 0 -6 -6 -9 -14
-6 -24 9 -38 -17 -26 -47 32 -81 26 -75 64 -64 20 6 36 14 36 18 0 3 8 6 19 7
10 1 36 9 57 19 21 9 45 16 52 15 6 -1 12 2 12 7 0 5 6 9 13 9 6 1 35 10 64
21 28 11 54 17 57 14 3 -3 6 0 6 6 0 6 13 13 30 17 26 6 29 10 24 33 -4 15
-12 36 -18 47 -5 11 -9 23 -8 28 2 8 -15 8 -38 0z"/>
<path d="M5613 4300 c-23 -10 -33 -19 -26 -23 7 -4 10 -14 6 -22 -3 -8 0 -15
6 -15 6 0 10 -3 10 -7 -1 -5 0 -11 1 -15 1 -5 3 -12 4 -18 1 -13 9 -14 52 -5
20 3 33 9 30 12 -3 3 -1 12 5 19 7 9 5 20 -8 40 -10 16 -17 29 -15 31 1 2 2 7
2 11 0 13 -27 10 -67 -8z"/>
<path d="M6095 4234 c-11 -3 -27 -8 -35 -11 -8 -4 -18 -7 -22 -7 -16 -2 -48
-37 -43 -46 3 -6 1 -10 -4 -10 -7 0 -9 -21 -6 -57 3 -32 5 -70 6 -85 1 -16 6
-28 11 -28 6 0 8 -13 6 -30 -3 -16 -1 -30 4 -30 4 0 8 -20 8 -45 0 -43 -1 -45
-29 -45 -28 0 -43 16 -45 50 -1 8 -5 20 -8 26 -17 27 -20 119 -4 148 8 16 12
34 9 40 -4 5 -7 24 -8 41 -2 26 -6 30 -29 28 -32 -2 -86 -39 -86 -59 0 -8 -4
-14 -8 -14 -8 0 -8 -36 1 -60 3 -8 6 -22 6 -30 0 -8 5 -35 11 -60 6 -25 13
-56 16 -70 10 -50 11 -55 17 -70 4 -8 11 -28 17 -43 6 -16 19 -31 30 -34 11
-3 20 -9 20 -13 0 -10 80 -8 95 1 6 4 18 5 28 4 9 -2 17 1 17 6 0 5 5 9 11 9
25 0 66 71 53 92 -4 6 -8 22 -10 37 -5 47 -16 106 -21 121 -3 8 -6 26 -7 40
-1 14 -6 31 -10 38 -8 13 23 46 46 48 10 1 21 -10 26 -25 25 -73 31 -95 26
-103 -3 -5 -2 -14 3 -21 14 -18 10 -93 -5 -90 -7 2 -12 -3 -13 -10 -5 -59 19
-121 41 -107 7 4 19 6 27 3 7 -3 13 0 13 6 0 6 7 11 16 11 19 0 47 65 38 92
-3 11 -8 35 -10 52 -5 50 -11 80 -17 96 -9 20 -28 101 -29 120 0 8 -5 21 -11
28 -5 6 -6 12 -3 12 4 0 1 7 -7 15 -9 8 -17 19 -19 25 -4 11 -83 21 -113 14z"/>
<path d="M716 3920 c-8 -43 -8 -80 2 -81 4 0 16 -3 27 -5 11 -3 44 -6 73 -7
51 -1 52 -1 52 -31 0 -24 -11 -42 -47 -76 -26 -25 -50 -45 -53 -45 -4 0 -25
-18 -47 -40 -38 -37 -40 -44 -39 -93 0 -28 -3 -53 -7 -55 -5 -1 -7 -14 -5 -27
l3 -25 23 23 c12 12 22 19 22 16 0 -3 37 31 83 76 45 45 89 86 98 91 13 7 29
-5 73 -55 31 -35 56 -67 56 -71 0 -4 13 -19 30 -35 16 -15 27 -30 24 -32 -2
-3 2 -11 10 -17 19 -16 29 14 30 93 1 55 -1 62 -39 105 -22 25 -45 50 -52 54
-7 4 -13 14 -13 22 0 8 -7 18 -16 23 -21 12 -28 82 -8 83 7 1 20 2 27 3 6 1
17 -1 23 -6 5 -4 31 -7 56 -6 l46 0 6 50 c4 28 4 53 1 56 -9 10 -37 14 -110
15 -38 1 -72 5 -75 8 -3 4 -59 10 -126 14 l-121 7 -7 -32z"/>
<path d="M5895 3583 c1 -38 -2 -72 -6 -78 -4 -5 -6 -73 -5 -150 l1 -140 214
-3 c134 -1 217 1 221 7 3 6 5 37 4 71 -1 33 1 60 5 60 4 0 6 65 6 144 0 122
-2 144 -15 144 -8 0 -31 3 -50 7 l-36 7 1 -152 c0 -84 -3 -157 -7 -163 -8 -14
-58 -18 -58 -5 0 5 -4 6 -10 3 -5 -3 -10 0 -11 7 -2 30 0 119 5 199 l6 85 -43
-1 -42 -1 -3 -77 c-2 -42 -6 -77 -10 -77 -4 0 -7 -24 -5 -52 3 -72 -3 -89 -30
-84 -12 3 -27 5 -34 5 -8 1 -10 23 -7 79 2 42 5 112 7 155 l3 77 -51 0 -51 0
1 -67z"/>
<path d="M920 3343 c0 -5 -15 -9 -32 -9 -32 -1 -51 -4 -111 -19 -30 -8 -69
-42 -76 -66 -7 -25 -8 -114 0 -124 3 -5 10 -45 14 -87 4 -43 11 -80 15 -83 5
-3 7 -12 3 -20 -7 -19 23 -83 50 -109 36 -35 248 -20 339 24 45 21 62 97 45
200 -16 96 -21 136 -19 144 2 4 -2 14 -8 20 -5 7 -7 15 -4 18 10 11 -36 93
-59 104 -29 13 -157 19 -157 7z m100 -130 c0 -7 4 -13 8 -13 4 0 9 -8 10 -17
1 -10 4 -31 7 -48 23 -135 15 -202 -21 -188 -8 3 -14 0 -14 -5 0 -6 -13 -9
-30 -7 -16 2 -30 0 -30 -5 0 -5 -21 -9 -46 -8 -37 0 -48 5 -51 19 -3 11 -9 19
-12 19 -4 0 -8 6 -9 13 -1 6 -7 51 -13 99 -16 115 -9 130 61 143 74 14 140 13
140 -2z"/>
<path d="M5870 3131 c-6 -25 -11 -56 -11 -68 1 -13 -3 -23 -7 -23 -4 0 -9 -10
-10 -22 -3 -50 -25 -148 -33 -148 -4 0 -6 -13 -4 -30 2 -16 0 -32 -5 -35 -4
-3 -7 -18 -6 -35 1 -16 -1 -30 -6 -30 -4 0 -8 -4 -8 -10 0 -5 10 -10 23 -10
12 0 28 -4 35 -9 20 -12 64 -1 58 15 -3 7 -1 16 4 19 5 3 8 13 8 23 -2 34 23
102 37 102 8 0 16 -4 19 -9 3 -5 15 -7 26 -4 11 3 20 1 20 -5 0 -5 14 -8 30
-7 17 1 30 -1 30 -5 0 -5 11 -7 25 -5 14 1 25 -2 25 -6 0 -5 12 -9 28 -10 15
0 36 -4 46 -8 34 -13 66 -1 66 25 0 13 4 24 8 24 4 0 7 12 7 26 -1 21 -9 29
-37 39 -19 6 -43 10 -54 9 -10 -2 -23 1 -29 5 -5 5 -41 14 -80 21 -38 7 -75
17 -81 21 -6 5 -14 6 -18 2 -12 -13 -25 20 -15 38 5 10 9 31 9 48 0 17 4 31 9
31 6 0 8 10 6 22 -3 12 0 25 6 29 6 3 -17 10 -50 16 l-60 9 -11 -45z"/>
<path d="M1201 2791 c-1 -8 -8 -11 -21 -8 -11 3 -20 2 -20 -3 0 -4 -15 -13
-32 -20 -52 -21 -95 -39 -135 -57 -21 -10 -42 -18 -48 -19 -12 -1 -68 -26 -75
-34 -3 -3 -14 -7 -25 -8 -34 -6 -39 -19 -26 -64 16 -51 28 -61 55 -45 12 6 24
10 29 9 4 -1 7 3 7 9 0 6 6 9 13 6 7 -3 21 1 32 9 10 8 27 14 37 14 10 0 18 5
18 11 0 5 4 8 9 4 5 -3 12 -1 16 5 4 6 11 8 16 5 5 -4 9 -3 9 2 0 7 72 35 77
30 1 -2 -11 -24 -28 -50 -16 -26 -27 -47 -24 -47 3 0 -3 -9 -12 -19 -34 -37
-48 -56 -45 -59 4 -3 -66 -121 -85 -144 -10 -11 -11 -18 -3 -23 5 -3 8 -11 5
-16 -4 -5 -1 -9 4 -9 6 0 11 -8 11 -18 0 -10 6 -27 14 -37 8 -11 12 -25 9 -32
-3 -7 1 -13 8 -13 7 0 9 -3 6 -7 -12 -11 13 -31 33 -26 11 3 20 9 20 13 0 4 6
8 13 7 18 -1 77 26 77 36 0 4 5 5 10 2 6 -4 22 1 35 9 14 9 25 14 25 11 0 -3
23 6 50 20 28 14 50 23 50 20 0 -2 15 4 33 15 17 11 40 20 50 20 21 0 22 17 0
66 -9 22 -16 42 -15 47 1 4 -6 3 -15 -2 -23 -12 -106 -46 -113 -46 -3 -1 -24
-11 -47 -23 -24 -12 -43 -20 -43 -17 0 3 -17 -4 -37 -15 -54 -29 -58 -25 -24
24 17 24 27 46 24 49 -3 4 2 9 11 13 9 3 16 10 16 16 0 5 14 29 30 53 17 24
30 48 30 54 0 5 8 15 18 20 9 6 13 11 8 11 -4 0 2 15 16 33 28 38 28 56 0 120
-12 27 -22 55 -22 63 0 8 -4 14 -9 14 -5 0 -12 8 -14 18 -3 9 -5 11 -6 3z"/>
<path d="M5612 2711 c-31 -72 -33 -81 -14 -87 9 -3 29 -11 44 -19 25 -13 27
-12 40 18 7 18 12 35 10 40 -1 4 2 7 7 7 11 0 8 27 -5 39 -5 4 -23 13 -40 18
-27 10 -31 8 -42 -16z"/>
<path d="M5762 2677 c-13 -6 -21 -16 -18 -23 3 -8 1 -16 -4 -19 -6 -4 -10 -15
-10 -25 0 -10 -6 -20 -12 -23 -13 -4 47 -34 80 -39 9 -2 19 -5 22 -8 3 -3 21
-11 40 -17 44 -15 106 -38 145 -54 17 -7 35 -14 40 -14 16 -3 70 -29 76 -38 3
-5 10 2 14 15 4 12 8 25 10 28 4 11 17 46 20 57 4 13 -18 35 -31 32 -5 -1 -27
6 -48 15 -22 10 -49 20 -60 22 -11 2 -23 8 -26 14 -4 6 -11 10 -16 8 -10 -3
-186 63 -194 73 -3 3 -15 2 -28 -4z"/>
<path d="M5705 2460 c-4 -6 -9 -8 -13 -6 -8 5 -83 -69 -82 -81 1 -12 -33 -77
-45 -85 -5 -4 -10 -11 -10 -15 -1 -4 -11 -27 -23 -50 -12 -24 -20 -43 -16 -43
4 0 2 -6 -3 -12 -27 -35 14 -138 54 -138 8 0 16 -7 20 -16 3 -8 12 -13 19 -10
7 3 16 1 19 -4 8 -13 51 -13 74 0 10 5 33 33 51 62 18 29 48 77 67 106 18 28
31 52 28 52 -3 0 3 8 13 18 25 25 61 23 68 -4 6 -25 -24 -86 -85 -172 -16 -23
-29 -32 -42 -29 -10 3 -25 -3 -35 -14 -9 -10 -13 -19 -8 -19 5 0 4 -4 -3 -8
-6 -4 -14 -19 -18 -33 -5 -22 -2 -28 33 -43 27 -12 48 -15 63 -10 13 4 26 8
29 7 3 0 13 8 23 18 9 11 14 19 11 19 -3 0 4 13 15 29 12 16 21 34 21 40 0 6
5 11 12 11 6 0 9 3 5 6 -3 4 7 26 24 50 16 24 26 44 22 44 -4 0 -3 4 2 8 17
12 48 86 51 120 4 56 -76 119 -173 138 -7 1 -13 -2 -13 -7 0 -5 -6 -9 -13 -9
-16 0 -67 -57 -67 -76 0 -7 -7 -17 -16 -22 -9 -5 -16 -13 -17 -18 -2 -20 -22
-64 -29 -64 -4 0 -8 -7 -8 -15 0 -8 -4 -15 -10 -15 -5 0 -10 -6 -10 -13 0 -8
-8 -21 -18 -30 -16 -14 -19 -14 -39 1 -21 16 -21 18 -6 52 9 19 17 37 17 40 5
20 61 110 70 112 6 0 18 1 26 2 8 1 27 24 42 51 29 52 34 70 19 60 -5 -3 -12
-1 -16 4 -3 5 -14 8 -25 6 -11 -2 -22 0 -25 6 -8 12 -22 12 -30 -1z"/>
<path d="M1355 2184 c-22 -12 -45 -27 -52 -33 -7 -6 -14 -11 -17 -11 -2 0 -16
-10 -31 -22 -84 -71 -105 -92 -105 -109 0 -11 -4 -19 -10 -19 -11 0 -8 -35 3
-46 4 -4 7 -14 7 -22 0 -16 93 -150 119 -170 9 -7 16 -16 16 -20 0 -14 80 -94
108 -109 15 -8 36 -12 45 -9 9 3 19 5 22 4 9 -2 123 74 173 115 49 40 74 78
81 119 4 30 -49 134 -86 169 -10 9 -18 21 -18 26 0 6 -11 18 -24 29 -14 10
-23 21 -21 24 2 4 -18 29 -45 55 -59 58 -100 66 -165 29z m85 -117 c0 -4 4 -6
9 -2 5 3 18 -8 27 -25 10 -16 22 -30 26 -30 4 0 8 -6 8 -14 0 -8 3 -16 8 -18
14 -6 61 -76 55 -82 -4 -3 -1 -6 5 -6 18 0 14 -24 -5 -46 -38 -40 -117 -94
-140 -94 -13 0 -35 11 -49 25 -14 14 -22 25 -18 25 4 0 -5 11 -20 25 -15 14
-24 25 -21 25 4 0 -7 17 -24 37 -16 20 -28 40 -25 45 3 4 0 8 -6 8 -13 0 0 27
27 53 64 62 143 103 143 74z"/>
<path d="M5384 1985 c-30 -24 -142 -137 -237 -240 -48 -52 -54 -62 -43 -78 7
-9 17 -17 21 -17 5 0 49 -39 99 -87 50 -47 112 -106 138 -131 30 -29 52 -42
62 -39 9 4 16 11 16 17 0 5 6 10 13 10 8 0 19 12 26 26 10 23 8 29 -24 60 -43
41 -41 48 58 147 73 74 77 74 126 22 l24 -26 43 46 43 46 -37 38 c-20 21 -39
38 -42 38 -3 0 -13 3 -24 8 -11 5 -26 4 -37 -3 -22 -14 -34 1 -21 25 19 32
-70 129 -138 149 -33 11 -40 9 -66 -11z m83 -139 c36 -33 27 -57 -49 -135 -35
-36 -62 -68 -60 -73 6 -21 -42 -4 -73 26 l-35 34 82 86 c46 47 89 86 96 86 7
0 25 -11 39 -24z"/>
<path d="M1784 1775 c-4 -8 -10 -13 -14 -10 -4 3 -13 -8 -20 -24 -6 -16 -18
-32 -27 -35 -8 -3 -12 -10 -8 -15 3 -6 -6 -18 -20 -27 -14 -9 -23 -19 -21 -22
3 -2 -17 -32 -45 -66 -28 -33 -57 -69 -65 -79 -8 -9 -14 -22 -14 -27 0 -6 -4
-10 -10 -10 -14 0 -12 -19 3 -33 22 -22 88 -60 75 -44 -1 1 9 14 22 28 14 14
34 38 45 54 11 16 28 38 37 49 46 54 78 100 78 110 0 6 5 3 11 -8 7 -11 8 -21
2 -25 -9 -6 -33 -131 -34 -176 0 -10 -4 -24 -8 -30 -5 -5 -7 -19 -5 -30 1 -10
-1 -24 -6 -30 -22 -27 8 -99 36 -88 8 3 14 -2 14 -11 0 -9 4 -16 8 -16 13 0
117 53 120 61 2 4 10 5 18 2 8 -3 14 -1 14 4 0 8 46 31 85 42 6 2 27 12 47 22
48 24 63 24 41 0 -10 -11 -26 -30 -35 -43 -10 -13 -45 -57 -78 -99 -33 -42
-60 -83 -60 -90 0 -13 32 -40 46 -38 3 0 12 -8 21 -18 11 -14 16 -15 20 -5 3
8 18 27 34 43 16 16 29 33 29 36 0 3 7 13 15 22 9 9 37 45 63 81 25 36 52 69
59 73 7 4 13 12 13 18 0 5 11 21 25 35 32 32 31 39 -5 61 -16 9 -30 21 -30 25
0 4 -7 8 -15 8 -8 0 -15 4 -15 8 0 4 -13 15 -28 24 -28 17 -72 15 -72 -3 0 -5
-3 -8 -7 -7 -11 2 -187 -84 -194 -95 -4 -5 -12 -6 -18 -3 -6 4 -11 2 -11 -3 0
-6 -3 -11 -8 -11 -4 0 -6 18 -4 40 2 22 7 40 11 40 4 0 6 12 6 28 -1 15 1 32
4 37 3 6 6 19 7 30 1 11 3 27 6 35 3 8 10 34 15 58 11 47 11 47 -46 92 -18 14
-40 32 -50 41 -28 25 -51 30 -57 14z"/>
<path d="M5020 1632 c-14 -9 -26 -20 -28 -24 -2 -5 -10 -8 -18 -8 -8 0 -14 -4
-14 -10 0 -5 -5 -10 -11 -10 -10 0 -86 -53 -121 -84 -10 -9 -18 -14 -18 -10 0
5 -62 -39 -93 -68 -18 -16 -18 -17 0 -45 22 -34 33 -49 56 -74 9 -10 17 -21
17 -24 0 -12 74 -115 82 -115 5 0 6 -5 3 -10 -3 -6 1 -13 9 -16 9 -3 16 -12
16 -19 0 -7 7 -18 15 -25 8 -7 13 -16 10 -20 -9 -14 26 -20 48 -9 12 6 45 29
74 50 29 22 57 39 63 39 5 0 10 5 10 10 0 6 7 10 15 10 9 0 18 7 21 15 4 8 10
15 15 15 4 0 37 22 72 48 48 35 61 51 53 59 -26 28 -36 43 -34 50 1 5 -6 9
-15 11 -9 2 -17 -1 -17 -7 0 -6 -7 -11 -15 -11 -8 0 -15 -4 -15 -10 0 -5 -5
-10 -11 -10 -11 0 -82 -50 -87 -62 -2 -5 -10 -8 -18 -8 -8 0 -14 -4 -14 -10 0
-5 -5 -10 -11 -10 -6 0 -22 -9 -36 -20 -23 -18 -66 -30 -50 -13 4 3 -1 15 -10
26 -17 18 -17 20 17 48 19 16 40 29 47 29 6 0 16 6 20 13 11 16 98 77 111 77
15 0 26 41 15 49 -6 3 -15 16 -22 28 -10 20 -14 21 -34 10 -12 -6 -26 -17 -32
-23 -5 -5 -37 -28 -70 -50 -33 -21 -61 -42 -63 -46 -2 -5 -10 -8 -17 -8 -7 0
-15 -6 -18 -12 -5 -16 -35 -1 -51 25 -8 13 -5 21 11 37 12 11 26 20 30 20 7 0
107 71 140 100 7 5 17 10 22 10 6 0 17 12 25 28 12 25 12 29 -9 47 -13 10 -21
23 -19 27 9 14 -20 8 -46 -10z"/>
<path d="M2450 1485 c-7 -8 -9 -15 -6 -15 4 0 0 -7 -8 -16 -24 -23 -20 -32 27
-56 55 -29 59 -29 79 7 25 43 23 49 -26 73 -51 26 -50 26 -66 7z"/>
<path d="M4660 1382 c0 -7 -4 -11 -9 -7 -5 3 -13 0 -16 -6 -4 -5 -13 -8 -21
-5 -8 3 -14 1 -14 -4 0 -6 -6 -10 -12 -10 -40 -1 -42 -8 -51 -261 -2 -53 -7
-101 -11 -107 -4 -7 -41 21 -97 76 -49 48 -108 102 -129 121 -40 33 -41 33
-85 21 -25 -7 -45 -17 -45 -22 0 -5 -4 -6 -10 -3 -5 3 -10 2 -10 -3 0 -9 37
-46 220 -219 120 -114 122 -115 179 -95 25 8 49 19 52 24 3 6 9 9 13 9 20 -3
24 2 21 34 -1 19 2 35 6 35 5 0 8 24 7 53 -1 28 2 86 6 127 3 41 8 100 10 130
3 30 7 64 9 76 3 11 1 27 -4 35 -7 11 -9 11 -9 1z"/>
<path d="M2386 1354 c-9 -8 -16 -22 -16 -30 0 -8 -5 -14 -11 -14 -5 0 -8 -4
-4 -9 3 -5 1 -12 -5 -16 -6 -4 -8 -11 -5 -16 4 -5 2 -9 -4 -9 -5 0 -15 -16
-22 -35 -7 -19 -17 -35 -21 -35 -4 0 -7 -3 -6 -7 2 -11 -24 -66 -35 -74 -5 -3
-8 -9 -8 -13 1 -10 -33 -80 -43 -87 -14 -11 13 -48 39 -55 14 -3 25 -10 25
-14 0 -20 36 -1 50 26 8 16 20 32 25 36 6 4 7 8 2 8 -4 0 3 17 16 38 13 20 25
40 26 44 2 12 45 102 51 108 5 5 43 82 44 90 1 3 5 10 9 16 8 13 -4 24 -52 48
-41 19 -36 19 -55 0z"/>
<path d="M4015 1307 c-64 -20 -66 -24 -50 -80 6 -23 12 -28 29 -23 11 3 33 6
47 6 32 0 40 16 32 64 -6 40 -17 46 -58 33z"/>
<path d="M3005 1259 c-16 -4 -26 -7 -21 -8 5 0 4 -7 -1 -13 -18 -25 -8 -41 27
-43 43 -4 59 8 53 39 -6 29 -18 35 -58 25z"/>
<path d="M3102 1229 c-13 -34 -4 -56 21 -54 12 0 30 -2 39 -7 13 -6 16 -4 13
12 -2 11 0 20 6 20 5 0 9 8 9 18 0 14 -7 18 -27 17 -16 -1 -34 2 -40 8 -9 7
-15 3 -21 -14z"/>
<path d="M2822 1181 c1 -3 -1 -13 -5 -21 -8 -23 -18 -73 -18 -95 0 -10 -4 -24
-9 -30 -4 -5 -7 -25 -5 -42 1 -18 -1 -33 -6 -33 -4 0 -7 -16 -5 -35 1 -19 -2
-36 -7 -38 -17 -5 4 -96 29 -122 13 -14 24 -23 24 -19 0 3 7 1 15 -6 8 -7 15
-10 15 -6 0 3 12 1 28 -5 75 -29 240 -50 293 -37 29 7 68 45 75 74 4 16 10 34
15 39 4 6 6 20 5 30 -2 11 -1 25 2 30 4 6 7 19 8 30 5 47 28 160 33 165 13 11
9 41 -5 36 -7 -3 -16 -1 -19 4 -4 6 -27 10 -53 10 l-47 0 -2 -37 c-1 -43 -7
-81 -16 -103 -3 -8 -6 -22 -6 -30 -1 -40 -22 -111 -38 -127 -11 -11 -30 -17
-48 -15 -62 5 -105 14 -105 23 0 5 -8 8 -17 7 -58 -4 -77 30 -59 107 2 11 7
44 11 73 4 28 10 52 14 52 3 0 7 12 8 28 1 15 4 39 7 55 2 15 1 27 -2 28 -4 1
-20 2 -37 4 -16 1 -30 4 -30 5 0 1 -10 4 -22 5 -12 1 -22 -1 -21 -4z"/>
<path d="M4068 1169 c-10 -5 -24 -9 -30 -8 -7 0 -23 -2 -36 -6 -18 -6 -21 -12
-16 -29 4 -11 8 -31 8 -43 0 -13 3 -23 7 -23 4 0 6 -11 4 -25 -1 -14 2 -25 8
-25 5 0 7 -11 5 -25 -3 -14 -1 -25 3 -25 5 0 9 -13 9 -29 0 -17 4 -32 9 -36 6
-3 8 -14 6 -25 -2 -11 1 -22 6 -25 5 -4 7 -9 5 -13 -2 -4 2 -30 9 -57 13 -54
9 -52 88 -42 33 3 49 23 37 46 -9 16 -27 86 -35 131 -10 58 -13 75 -15 78 -4
3 -6 14 -14 65 -5 26 -12 47 -16 47 -4 0 -6 11 -5 24 4 35 -15 58 -37 45z"/>
<path d="M3825 1115 c-19 -9 -20 -18 -18 -105 2 -52 5 -121 8 -153 4 -54 3
-57 -15 -47 -11 6 -20 16 -20 23 0 6 -9 20 -20 32 -11 11 -46 52 -78 91 -31
39 -70 87 -87 108 l-30 36 -85 -1 c-46 -1 -89 -3 -95 -5 -6 -3 -9 -26 -7 -57
2 -28 6 -101 8 -162 3 -60 7 -117 10 -125 4 -8 6 -36 6 -61 0 -32 4 -46 14
-46 8 0 14 4 14 9 0 5 10 9 23 8 59 -5 65 -2 60 33 -2 17 -6 76 -8 130 -1 54
-6 109 -9 122 -5 19 -2 25 9 25 9 0 14 -4 11 -9 -3 -5 9 -20 26 -35 18 -14 28
-26 24 -26 -5 0 17 -29 49 -65 31 -36 54 -65 50 -65 -3 0 9 -13 27 -30 18 -16
29 -30 25 -30 -4 0 1 -10 12 -21 18 -19 27 -21 93 -15 40 3 81 6 92 6 17 1 18
9 12 118 -3 64 -6 158 -7 207 -1 50 -5 96 -9 104 -9 18 -57 21 -85 6z"/>
</g>
</svg>
